<svg width="20px" height="22px" viewBox="0 0 20 22" xmlns="http://www.w3.org/2000/svg">
    <g id="Icons" stroke="none" stroke-width="1" fill="none" fill-rule="evenodd" stroke-linecap="round" stroke-linejoin="round">
        <g id="24-px-Icons" transform="translate(-218.000000, -409.000000)" stroke="#632010">
            <g id="ic_ad" transform="translate(216.000000, 408.000000)">
                <g id="Group">
                    <g transform="translate(3.000000, 2.000000)" stroke-width="2">
                        <polyline id="Rectangle-2" points="0 16 0 2 0 2 14 2 14 16"></polyline>
                        <path d="M0,16 C0,18.209139 1.790861,20 4,20 L4,20 C6.209139,20 8,18.209139 8,16" id="Oval"></path>
                        <path d="M14,20 L14,20 C16.209139,20 18,18.209139 18,16" id="Oval-Copy"></path>
                        <path d="M8,16 L18,16" id="Line"></path>
                        <path d="M14,20 L4,20" id="Line"></path>
                        <rect id="Rectangle-3" x="2" y="0" width="2" height="2"></rect>
                        <rect id="Rectangle-3-Copy" x="10" y="0" width="2" height="2"></rect>
                        <path d="M4,7 L10,7" id="Line"></path>
                        <path d="M4,11 L10,11" id="Line-Copy"></path>
                    </g>
                </g>
            </g>
        </g>
    </g>
</svg>