<svg xmlns="http://www.w3.org/2000/svg" viewBox="0 0 512 512">
    <path d="M308.3 508.5c-2.5 0.1-4.1 0.3-5.7 0.3-34.2 0-68.3-0.1-102.5 0.1-4.8 0-6.1-1.3-6.1-6.1 0.1-79.6 0.1-159.3 0.1-238.9 0-2.1 0-4.2 0-6.9-18.6 0-36.7 0-55.1 0 0-28.4 0-56.3 0-85 1.9 0 3.7 0 5.4 0 15 0 30-0.1 45 0.1 3.8 0 4.8-1.1 4.8-4.8-0.2-22.3-0.2-44.7 0-67 0.1-15.6 2.6-30.8 9.8-44.9 10.3-19.9 26.6-32.8 47.2-40.8 16.8-6.6 34.5-9 52.3-9.3 29-0.4 58-0.2 87-0.3 2.7 0 4.9-0.1 4.9 3.7-0.1 27.5-0.1 55-0.1 82.5 0 0.3-0.1 0.6-0.5 1.9-1.7 0-3.6 0-5.5 0-18 0-36-0.1-54 0-10.4 0-18.8 4.2-24.1 13.3-1.6 2.7-2.6 6.2-2.6 9.4-0.3 17 0 34-0.2 51 0 4 1.2 5.1 5.1 5.1 25-0.2 50-0.1 75-0.1 2 0 3.9 0 7.3 0-3.5 28.6-6.9 56.6-10.4 84.9-26 0-51.3 0-77.1 0C308.3 340.8 308.3 424.4 308.3 508.5z"/>
</svg>