<svg xmlns="http://www.w3.org/2000/svg" viewBox="0 0 32 32">
    <path d="M5.7 5C5.7 5 5 6.2 5 8.3 5 9.6 5.3 10.3 5.5 10.7 4 12.3 3 14.5 3 17.3 3 24.6 7.6 27 16 27 24.4 27 29 24.6 29 17.3 29 14.4 28.1 12.2 26.6 10.6 27 9.5 27.4 7.4 26.3 5 23.2 5 20.7 7.4 20.6 7.5 19.1 7.2 17.6 7 16 7 14.4 7 12.8 7.2 11.3 7.6 9.3 5.5 6.8 5 5.7 5ZM20.7 15.4C21.5 15.4 22.3 15.5 23 15.7 24.8 16.3 26 18 26 19.9 26 25.1 23.2 26 16 26 10.7 26 6.3 25.1 6.3 20.1 6.3 18.2 7.3 17.1 8.1 16.4 9.7 14.9 12.3 15.7 16 15.7 17.7 15.7 19.3 15.5 20.7 15.4ZM10.5 18C9.7 18 9 18.9 9 20 9 21.1 9.7 22 10.5 22 11.3 22 12 21.1 12 20 12 18.9 11.3 18 10.5 18ZM21.5 18C20.7 18 20 18.9 20 20 20 21.1 20.7 22 21.5 22 22.3 22 23 21.1 23 20 23 18.9 22.3 18 21.5 18ZM10.3 18.8C10.6 18.8 10.8 19 10.8 19.3 10.8 19.5 10.6 19.7 10.3 19.7 10.1 19.7 9.9 19.5 9.9 19.3 9.9 19 10.1 18.8 10.3 18.8ZM21.3 18.8C21.6 18.8 21.8 19 21.8 19.3 21.8 19.5 21.6 19.7 21.3 19.7 21.1 19.7 20.9 19.5 20.9 19.3 20.9 19 21.1 18.8 21.3 18.8Z"/>
</svg>